<?xml version="1.0" encoding="UTF-8" standalone="no"?>
<!-- Created with Inkscape (http://www.inkscape.org/) -->

<svg
   xmlns:dc="http://purl.org/dc/elements/1.1/"
   xmlns:cc="http://creativecommons.org/ns#"
   xmlns:rdf="http://www.w3.org/1999/02/22-rdf-syntax-ns#"
   xmlns:svg="http://www.w3.org/2000/svg"
   xmlns="http://www.w3.org/2000/svg"
   xmlns:sodipodi="http://sodipodi.sourceforge.net/DTD/sodipodi-0.dtd"
   xmlns:inkscape="http://www.inkscape.org/namespaces/inkscape"
   width="185.03014mm"
   height="189.64961mm"
   viewBox="0 0 185.03014 189.64961"
   version="1.1"
   id="svg8"
   inkscape:version="0.92.4 (unknown)"
   sodipodi:docname="mine-logo.svg">
  <defs
     id="defs2" />
  <sodipodi:namedview
     id="base"
     pagecolor="#ffffff"
     bordercolor="#666666"
     borderopacity="1.0"
     inkscape:pageopacity="0.0"
     inkscape:pageshadow="2"
     inkscape:zoom="0.35"
     inkscape:cx="-207.47962"
     inkscape:cy="692.67868"
     inkscape:document-units="mm"
     inkscape:current-layer="layer1"
     showgrid="false"
     inkscape:window-width="1600"
     inkscape:window-height="832"
     inkscape:window-x="0"
     inkscape:window-y="0"
     inkscape:window-maximized="1" />
  <metadata
     id="metadata5">
    <rdf:RDF>
      <cc:Work
         rdf:about="">
        <dc:format>image/svg+xml</dc:format>
        <dc:type
           rdf:resource="http://purl.org/dc/dcmitype/StillImage" />
        <dc:title></dc:title>
      </cc:Work>
    </rdf:RDF>
  </metadata>
  <g
     inkscape:label="Layer 1"
     inkscape:groupmode="layer"
     id="layer1"
     transform="translate(-22.389698,-142.45496)">
    <path
       style="color:#000000;font-style:normal;font-variant:normal;font-weight:normal;font-stretch:normal;font-size:medium;line-height:normal;font-family:sans-serif;font-variant-ligatures:normal;font-variant-position:normal;font-variant-caps:normal;font-variant-numeric:normal;font-variant-alternates:normal;font-feature-settings:normal;text-indent:0;text-align:start;text-decoration:none;text-decoration-line:none;text-decoration-style:solid;text-decoration-color:#000000;letter-spacing:normal;word-spacing:normal;text-transform:none;writing-mode:lr-tb;direction:ltr;text-orientation:mixed;dominant-baseline:auto;baseline-shift:baseline;text-anchor:start;white-space:normal;shape-padding:0;clip-rule:nonzero;display:inline;overflow:visible;visibility:visible;opacity:0.98000004;isolation:auto;mix-blend-mode:normal;color-interpolation:sRGB;color-interpolation-filters:linearRGB;solid-color:#000000;solid-opacity:1;vector-effect:none;fill:#000000;fill-opacity:1;fill-rule:nonzero;stroke:none;stroke-width:1.88240576;stroke-linecap:round;stroke-linejoin:round;stroke-miterlimit:4;stroke-dasharray:none;stroke-dashoffset:0;stroke-opacity:1;color-rendering:auto;image-rendering:auto;shape-rendering:auto;text-rendering:auto;enable-background:accumulate"
       d="m 186.64054,182.89767 a 0.94129701,0.94129701 0 0 0 -0.72657,1.54461 c 25.64476,31.64321 26.21706,76.73812 1.38338,109.02177 a 0.94129701,0.94129701 0 1 0 1.4919,1.14774 c 25.35887,-32.96641 24.77427,-79.04255 -1.41284,-111.35497 a 0.94129701,0.94129701 0 0 0 -0.73587,-0.35915 z"
       id="path1062"
       inkscape:connector-curvature="0" />
    <path
       style="color:#000000;font-style:normal;font-variant:normal;font-weight:normal;font-stretch:normal;font-size:medium;line-height:normal;font-family:sans-serif;font-variant-ligatures:normal;font-variant-position:normal;font-variant-caps:normal;font-variant-numeric:normal;font-variant-alternates:normal;font-feature-settings:normal;text-indent:0;text-align:start;text-decoration:none;text-decoration-line:none;text-decoration-style:solid;text-decoration-color:#000000;letter-spacing:normal;word-spacing:normal;text-transform:none;writing-mode:lr-tb;direction:ltr;text-orientation:mixed;dominant-baseline:auto;baseline-shift:baseline;text-anchor:start;white-space:normal;shape-padding:0;clip-rule:nonzero;display:inline;overflow:visible;visibility:visible;opacity:0.98000004;isolation:auto;mix-blend-mode:normal;color-interpolation:sRGB;color-interpolation-filters:linearRGB;solid-color:#000000;solid-opacity:1;vector-effect:none;fill:#000000;fill-opacity:1;fill-rule:nonzero;stroke:none;stroke-width:1.88240576;stroke-linecap:round;stroke-linejoin:round;stroke-miterlimit:4;stroke-dasharray:none;stroke-dashoffset:0;stroke-opacity:1;color-rendering:auto;image-rendering:auto;shape-rendering:auto;text-rendering:auto;enable-background:accumulate"
       d="m 40.436545,188.01829 a 0.94129701,0.94129701 0 0 0 -0.782384,0.39688 c -23.107604,31.67096 -23.01045,74.67916 0.240297,106.24519 a 0.94129701,0.94129701 0 1 0 1.515669,-1.11621 C 18.641982,262.63332 18.547025,220.53825 41.174999,189.52466 a 0.94129701,0.94129701 0 0 0 -0.738454,-1.50637 z"
       id="path160"
       inkscape:connector-curvature="0" />
    <path
       style="fill:#000000;stroke-width:0.37693793"
       d="m 115.93515,287.5053 c -3.20829,-0.66522 -5.36379,-0.88436 -8.15359,-0.82894 -2.08579,0.0414 -5.07229,-0.12367 -6.63664,-0.3669 -2.134892,-0.33194 -4.121166,-0.3402 -7.963967,-0.0331 -7.835434,0.62616 -11.587366,0.32234 -15.927927,-1.28976 -4.955656,-1.84055 -5.360249,-1.90898 -8.102952,-1.37041 -2.375559,0.46648 -2.45513,0.45514 -4.972545,-0.70867 -2.820305,-1.30383 -4.679159,-1.47237 -8.304919,-0.75301 -1.876075,0.37221 -2.77251,0.31429 -6.699887,-0.43291 l -4.534024,-0.86264 v -1.28389 c 0,-0.70615 0.539925,-2.49232 1.19983,-3.96927 0.948846,-2.12365 1.262364,-3.46767 1.498788,-6.42522 l 0.298966,-3.73984 -2.067645,-3.15331 c -1.137205,-1.73432 -2.067647,-3.52992 -2.067647,-3.99021 0,-0.61678 0.642726,-1.25059 2.443634,-2.40975 1.343998,-0.86507 2.495931,-1.69602 2.559846,-1.84655 0.06392,-0.15054 3.305446,-2.41586 7.203407,-5.03404 3.897956,-2.61818 7.169716,-5.05247 7.270581,-5.40953 0.100864,-0.35706 0.552958,-2.25005 1.004654,-4.20665 0.931879,-4.03658 0.862849,-3.93784 9.692849,-13.86394 7.344445,-8.25613 11.318164,-13.79134 13.830557,-19.26535 0.979205,-2.13348 1.360414,-2.57015 2.926112,-3.35177 5.402069,-2.69677 11.424269,-3.72859 20.591079,-3.52799 5.85178,0.12805 6.86949,0.24587 8.7904,1.01762 1.36124,0.54691 2.07529,1.02941 1.91235,1.29223 -0.14304,0.23068 0.1593,0.14051 0.67187,-0.20038 1.08839,-0.72387 1.14826,-2.24993 0.13178,-3.35954 -0.3546,-0.38711 -0.52912,-0.70383 -0.38782,-0.70383 0.35334,0 -3.70376,-5.73462 -5.78326,-8.17453 -3.2439,-3.8061 -11.29023,-10.07126 -15.97259,-12.43682 -2.127127,-1.07465 -1.47684,-1.33499 1.8231,-0.72986 5.07552,0.93071 11.3404,3.61874 16.56988,7.10949 3.21647,2.14705 8.87595,7.05826 11.12799,9.65669 l 1.64709,1.90044 1.31736,-0.73097 c 1.31189,-0.72793 1.3219,-0.72777 2.41146,0.0387 0.99384,0.69914 6.43718,8.09859 6.90407,9.38512 0.10743,0.29601 -0.0538,0.82113 -0.35815,1.16693 -0.50429,0.57281 -0.29017,0.74891 2.40759,1.98029 3.6787,1.67913 5.89623,3.04619 9.94708,6.13221 5.73681,4.37042 9.12934,8.0098 12.11788,12.99966 3.22182,5.37934 3.69143,7.01782 4.20284,14.66336 0.44805,6.69861 1.23956,9.44758 4.45199,15.46189 2.50066,4.68178 3.93176,8.7079 3.93176,11.06135 0,1.68306 0.0422,1.74473 1.66262,2.43093 3.04954,1.29139 4.72211,4.74432 4.29206,8.86076 -0.26787,2.56397 -1.23419,4.25767 -2.9337,5.14201 -1.17821,0.61308 -2.06107,0.66548 -8.5199,0.50565 -5.2193,-0.12915 -7.84533,-0.35673 -9.52667,-0.82557 -2.28989,-0.63855 -2.39982,-0.63351 -8.15359,0.37336 -3.99458,0.69902 -6.4526,0.95005 -7.80061,0.79663 -1.17563,-0.1338 -2.06412,-0.0707 -2.20634,0.15663 -0.13097,0.20935 -0.94919,0.73901 -1.81825,1.17702 -1.31986,0.6652 -2.61286,0.84783 -7.84988,1.10875 -4.66336,0.23234 -6.84202,0.50688 -8.50327,1.07154 -2.92508,0.9942 -6.0847,0.93859 -11.5957,-0.20409 z m 20.58778,-3.87906 c 1.62434,-0.16833 3.03103,-0.38285 3.12603,-0.47669 0.095,-0.0939 0.3478,-1.08271 0.5618,-2.19747 0.48683,-2.53597 -0.0676,-3.43708 -3.05776,-4.9695 -1.89224,-0.96977 -2.3407,-1.04715 -5.32058,-0.91794 -3.75507,0.16281 -6.9943,1.44664 -8.40455,3.33105 -1.07337,1.43429 -3.44655,2.11683 -8.47738,2.43815 -3.33136,0.21278 -3.87663,0.33409 -3.50264,0.77926 0.96225,1.14544 2.29095,1.40706 9.22773,1.8169 9.13592,0.53976 12.17002,0.57734 15.84735,0.19624 z m -27.57545,-1.24423 c 0.4957,-0.48664 -0.53461,-2.12925 -1.82184,-2.90461 -1.47052,-0.88573 -2.90156,-0.95872 -3.91725,-0.19978 -0.55701,0.41621 -1.93583,0.55349 -5.666217,0.56415 -7.545332,0.0216 -10.433066,0.69254 -10.42779,2.42294 0.0013,0.46074 21.366327,0.57553 21.833097,0.1173 z m -23.743831,-0.6326 c 1.037466,-1.91509 0.366046,-4.02252 -2.465871,-7.73979 -2.410363,-3.16391 -3.515427,-3.70137 -7.570552,-3.68199 -5.30011,0.0253 -10.809272,2.65042 -11.347974,5.40727 -0.691187,3.5372 -0.841415,3.15466 1.528701,3.89274 1.185021,0.36904 3.537826,0.73247 5.228458,0.80765 1.690627,0.0752 4.695105,0.55353 6.676615,1.06302 4.576863,1.17682 7.400816,1.26601 7.950623,0.2511 z m 71.983291,-1.50064 c 0.78966,-0.21006 1.75071,-0.60946 2.13568,-0.88757 1.50519,-1.08732 -0.84472,-2.99897 -4.88995,-3.97795 -1.04013,-0.25172 -2.00752,-0.6437 -2.14974,-0.87105 -0.40525,-0.64775 -4.17578,0.33478 -6.04553,1.57534 -1.48701,0.98663 -3.37003,3.41745 -3.37453,4.35626 -0.003,0.51844 12.2702,0.35134 14.32407,-0.19503 z m 23.46207,-0.10278 c 0.42664,-0.42148 0.68294,-1.50416 0.80655,-3.40707 0.15976,-2.45938 0.0884,-2.88095 -0.60355,-3.56455 -0.65402,-0.64609 -1.23891,-0.77106 -3.51007,-0.74995 -2.54761,0.0237 -2.81784,0.10796 -4.14535,1.29279 -1.2072,1.07743 -1.45081,1.56206 -1.62491,3.23256 -0.11266,1.08081 -0.3218,2.33504 -0.46475,2.78718 -0.24168,0.76443 -0.11761,0.83309 1.76979,0.97936 4.00275,0.31019 7.11196,0.082 7.77229,-0.57032 z M 58.860063,278.73028 c 0.417158,-0.003 1.345721,-0.3592 2.063472,-0.79147 l 1.304999,-0.78594 -0.885161,-0.65961 c -0.661577,-0.493 -0.836419,-0.91151 -0.692195,-1.65685 0.234747,-1.21315 0.101751,-1.30235 -2.586193,-1.73454 -2.999745,-0.48232 -5.673132,0.13922 -7.234814,1.68203 -1.162908,1.14885 -1.973572,2.99032 -1.515597,3.44276 0.33084,0.32684 5.960316,0.8219 7.459689,0.656 0.730027,-0.0808 1.668639,-0.14934 2.0858,-0.15238 z m 60.053377,-0.17081 c 1.11664,-0.29361 2.08847,-0.59138 2.15966,-0.66172 0.0712,-0.0703 -0.0205,-0.78446 -0.20368,-1.58696 -0.99419,-4.35483 -5.35488,-6.18672 -10.32738,-4.33843 -2.00433,0.745 -5.60476,3.59283 -5.60476,4.43316 0,0.40857 1.45633,1.09986 4.17161,1.98016 2.5522,0.82744 7.01771,0.90659 9.80455,0.17379 z m -23.187595,-0.38503 c 5.590025,-0.0595 6.556785,-0.42966 6.556785,-2.51055 0,-1.28585 -2.456645,-4.10228 -4.200768,-4.81599 -2.403964,-0.98372 -6.535801,1.56671 -9.099195,5.6166 -1.231919,1.94629 -1.097757,2.44957 0.546724,2.0509 0.652589,-0.1582 3.440996,-0.31163 6.196454,-0.34096 z m 73.921605,0.0663 c 0.14073,-0.13906 0.271,-0.97153 0.28943,-1.84993 0.0253,-1.19961 -0.33139,-2.23902 -1.43272,-4.17636 l -1.46622,-2.57925 -2.9286,0.1983 c -3.20413,0.21696 -4.83257,0.85733 -6.04164,2.37586 l -0.78812,0.98981 2.71509,2.18618 c 3.71931,2.99478 4.60929,3.39366 7.22419,3.23776 1.19497,-0.0712 2.28783,-0.24331 2.42859,-0.38237 z m -21.64955,-4.80627 c 1.1379,-0.49835 2.96723,-0.89248 4.63852,-0.99936 2.49386,-0.15948 2.83258,-0.2777 3.51729,-1.22769 0.9171,-1.27237 4.06785,-2.80333 6.50889,-3.16269 3.43693,-0.50596 7.31902,1.22006 8.0814,3.5931 0.30254,0.94168 0.42431,0.92391 2.95733,-0.43146 2.12291,-1.13592 2.15315,-1.17561 2.15315,-2.82657 0,-2.94069 -1.16675,-6.4119 -4.22241,-12.56193 -1.63805,-3.29684 -3.23229,-6.86685 -3.5428,-7.93336 -0.31048,-1.06651 -0.82373,-4.88951 -1.14053,-8.49555 l -0.57599,-6.55643 -2.23224,-4.30852 c -1.99589,-3.85226 -2.68858,-4.77489 -6.54143,-8.71266 -3.9241,-4.0106 -4.55965,-4.50446 -7.11259,-5.52687 -1.54188,-0.6175 -3.67508,-1.5947 -4.74046,-2.17156 l -1.93701,-1.04882 1.80523,3.57847 c 1.82216,3.61198 3.62531,8.81068 4.48986,12.94481 0.611,2.92163 0.60102,10.88497 -0.0153,12.36356 -0.46111,1.10593 -0.49109,1.05784 -1.86837,-2.99723 -2.02254,-5.95482 -5.40059,-12.20255 -9.39805,-17.3816 l -1.27056,-1.64615 v 1.10449 c 0,1.23811 -1.54498,3.84797 -3.30684,5.58602 -0.6413,0.63266 -3.15433,2.45841 -5.58447,4.05722 -4.98937,3.28252 -8.93645,6.74135 -9.84031,8.62307 -0.8444,1.75795 -0.77944,4.88212 0.14034,6.75075 0.78232,1.58933 1.29056,2.17421 4.57922,5.26977 1.47371,1.38719 2.4343,2.79682 3.70191,5.43248 0.94148,1.95756 2.09071,4.06499 2.55384,4.68317 1.32751,1.772 1.48912,2.66217 1.49416,8.22951 l 0.005,5.23228 2.9626,0.49018 c 3.32515,0.55017 5.81713,1.57185 7.08448,2.9046 l 0.85203,0.89597 1.96283,-1.46406 c 1.07958,-0.80523 2.80835,-1.83435 3.84176,-2.28694 z m -0.10174,-17.23206 c -0.30906,-0.30535 -0.31319,-0.66469 -0.0151,-1.31128 0.73422,-1.59192 2.08622,-0.92073 1.64485,0.81656 -0.24788,0.97577 -0.93255,1.18359 -1.62986,0.49472 z m -4.10193,-5.2228 c -0.34225,-0.54709 0.91973,-1.84965 1.79204,-1.84965 0.90467,0 1.29445,0.96376 0.68376,1.6907 -0.54075,0.64374 -2.10951,0.74444 -2.4758,0.15895 z m -18.671,24.21283 c 1.09965,-0.50191 2.29803,-1.0024 2.66304,-1.1122 0.48102,-0.1447 0.662,-0.58954 0.65762,-1.61635 -0.003,-0.77919 0.27285,-3.01835 0.61374,-4.97592 0.70333,-4.03903 0.46609,-5.62811 -1.20307,-8.05801 -0.53535,-0.77936 -1.32054,-2.33366 -1.74482,-3.45397 -0.5498,-1.45169 -1.60599,-2.91621 -3.676,-5.09713 -4.9217,-5.18547 -6.34111,-8.13968 -5.75234,-11.97236 0.51436,-3.34831 4.11333,-7.19493 10.03053,-10.72073 6.71959,-4.00393 8.41168,-5.91895 8.83832,-10.00287 0.12742,-1.21975 0.36014,-1.911 0.59505,-1.76757 0.22237,0.13576 0.26955,0.0497 0.11138,-0.20311 -0.15094,-0.24125 -0.43329,-0.34166 -0.62745,-0.2231 -0.19417,0.11855 -0.35303,-0.0122 -0.35303,-0.29054 0,-0.27834 -0.76593,-1.24871 -1.70209,-2.15636 l -1.70207,-1.65028 -2.91291,1.96384 c -2.57617,1.73681 -2.97801,1.89952 -3.47607,1.40748 -0.49806,-0.49204 -0.80848,-0.37121 -2.68531,1.04512 -1.16718,0.88082 -3.65807,2.64337 -5.5353,3.9168 -5.34342,3.62475 -13.77146,9.56521 -14.24817,10.04275 -0.26189,0.26236 -0.45355,2.03188 -0.48696,4.49584 l -0.0551,4.06321 -1.89618,2.91764 c -3.083334,4.7443 -3.589943,5.65806 -3.596507,6.48696 -0.0034,0.43316 -0.428794,1.36043 -0.945256,2.06059 -2.219608,3.00913 -3.218635,4.69667 -3.225376,5.44826 -0.0095,1.06071 -1.995422,3.13052 -3.003632,3.13052 -1.125043,0 -1.034154,-1.32714 0.14307,-2.08918 0.595577,-0.38551 2.124255,-2.94086 4.179644,-6.98671 1.782348,-3.50838 3.548042,-6.82137 3.923763,-7.36219 2.779794,-4.00128 3.480044,-6.28431 2.862764,-9.33341 l -0.23039,-1.13801 -3.898471,2.68345 c -5.248677,3.61286 -15.50084,10.81975 -23.51463,16.5299 -1.877218,1.3376 -5.280151,3.69947 -7.562072,5.2486 -2.28192,1.54913 -4.183602,3.04986 -4.225954,3.33496 -0.04236,0.28509 -0.181438,1.00288 -0.30907,1.59508 -0.194117,0.90066 -0.0058,1.29111 1.151594,2.388 1.386067,1.31357 3.160498,4.50191 3.167456,5.69135 0.0021,0.34844 0.151736,0.72392 0.332666,0.83439 0.18093,0.11047 2.271469,-0.29813 4.645647,-0.90801 2.374175,-0.60987 4.999307,-1.10809 5.833626,-1.10714 2.316512,0.003 4.298659,1.13118 7.131537,4.06048 1.419389,1.46769 2.759543,2.66853 2.978129,2.66853 0.218588,0 1.586039,-1.01315 3.038781,-2.25145 3.998418,-3.4082 6.267398,-4.37885 8.714299,-3.72794 1.837542,0.48883 3.570422,1.94264 4.529682,3.80021 l 0.76071,1.4731 1.5929,-0.90388 c 0.87609,-0.49714 2.6134,-1.52237 3.86073,-2.2783 3.69365,-2.23853 6.2095,-2.55408 8.99942,-1.12879 1.25609,0.64169 4.00129,3.96839 4.32446,5.24044 0.28344,1.11559 0.41839,1.11502 2.88765,-0.012 z m -68.917821,-4.52405 c 2.469848,-0.35571 4.922408,-0.4991 6.0121,-0.35152 l 1.840505,0.24928 -0.26875,-1.2581 c -0.7268,-3.40236 -2.882543,-5.4941 -6.022557,-5.84375 -1.458005,-0.16235 -1.944143,-0.0109 -3.736128,1.16421 -2.277253,1.49329 -2.891444,2.49045 -3.219511,5.22699 -0.201803,1.68332 -0.159002,1.82232 0.501041,1.62712 0.396936,-0.11739 2.59892,-0.48379 4.8933,-0.81423 z m -3.309541,-6.98633 c 0.68271,-0.5813 2.815915,-2.09851 4.740452,-3.37156 1.924537,-1.27306 4.181787,-2.86163 5.016106,-3.53018 0.834319,-0.66855 3.336809,-2.45263 5.561087,-3.96463 5.484177,-3.728 23.143059,-16.1513 25.725913,-18.09858 1.147191,-0.8649 3.451051,-2.46965 5.119693,-3.56611 1.668641,-1.09646 4.057831,-2.77891 5.309311,-3.73878 1.25148,-0.95987 3.86184,-2.79789 5.80078,-4.08448 1.93894,-1.2866 4.8401,-3.31371 6.44703,-4.50469 1.6069,-1.19099 3.90797,-2.81026 5.11349,-3.59838 1.20549,-0.78812 2.1441,-1.55094 2.08579,-1.69514 -0.13323,-0.32943 -2.06497,-2.76534 -3.36626,-4.24481 l -0.9848,-1.11964 -3.18681,2.25275 c -3.58153,2.53181 -7.87755,5.53706 -17.028915,11.91253 -3.44157,2.39764 -8.987901,6.27736 -12.32518,8.62162 -3.337282,2.34425 -8.627629,6.0519 -11.756329,8.23921 -3.128701,2.18732 -8.268499,5.78199 -11.421777,7.98815 -3.153278,2.20616 -8.30275,5.78145 -11.443269,7.94507 -5.196813,3.58028 -5.691536,4.01804 -5.504187,4.8705 0.301257,1.37074 1.901135,4.00177 2.820055,4.63763 0.948539,0.65635 1.619023,0.46192 3.27782,-0.95048 z m 32.510738,-35.40603 c 12.668713,-8.66682 15.169454,-10.59019 15.169454,-11.66711 0,-0.73307 -0.23648,-1.03184 -0.948087,-1.1978 -0.86946,-0.20277 -0.98099,-0.40776 -0.815358,-1.49861 0.199231,-1.31217 3.470015,0.54144 3.470015,1.96651 0,0.57425 0.71516,0.21997 3.69756,-1.83171 7.51528,-5.17 11.65862,-8.30967 11.5525,-8.75409 -0.06,-0.25113 0.19577,-0.67676 0.56826,-0.94584 0.37248,-0.26909 0.58259,-0.58278 0.46688,-0.6971 -0.52991,-0.5235 -6.28311,-1.41469 -10.40705,-1.61209 -4.43678,-0.21238 -4.63636,-0.18751 -7.96395,0.99219 -1.877221,0.66551 -4.522398,1.55342 -5.878166,1.97315 -2.44938,0.75827 -2.477085,0.78239 -4.36122,3.79772 -6.191382,9.90853 -10.393246,15.43904 -16.695798,21.97508 -4.258564,4.41632 -5.163272,5.6974 -5.991122,8.48348 l -0.573913,1.93147 6.131486,-4.25239 c 3.372324,-2.33881 9.032653,-6.2371 12.578509,-8.66286 z m 63.737334,3.90083 c -0.4383,-3.91736 -0.61715,-4.83656 -1.61228,-8.28662 -1.20534,-4.17888 -2.7041,-7.78161 -4.9277,-11.84532 -1.73996,-3.17984 -5.94789,-9.60262 -6.75378,-10.30865 -0.23519,-0.20606 -0.91557,-1.03236 -1.51193,-1.83622 -1.12611,-1.51797 -8.87632,-9.33659 -11.19762,-11.29644 -4.02641,-3.39947 -14.40018,-9.90853 -15.79169,-9.90853 -0.15026,0 0.59958,0.64333 1.66635,1.42963 7.97474,5.87806 13.19973,11.58581 16.27732,17.78126 0.69363,1.39635 1.26115,2.8385 1.26115,3.20478 0,0.38486 -1.1205,1.50751 -2.65465,2.65974 -1.46007,1.09657 -2.65467,2.06499 -2.65467,2.15203 0,0.4193 2.72982,4.25642 4.15312,5.83781 l 1.6036,1.78168 3.04955,-2.12311 3.04957,-2.12311 1.56199,1.68382 c 5.23684,5.64527 12.9281,17.94729 14.09684,22.54764 0.44902,1.76747 0.65341,1.05026 0.38483,-1.35039 z m -8.61064,-28.50518 c 0.31918,-0.37996 0.11252,-1.00411 -0.86179,-2.60256 -1.49696,-2.45591 -4.29121,-5.51463 -5.03777,-5.51463 -1.06712,0 -0.87703,1.07907 0.43742,2.48338 0.74671,0.79776 2.05698,2.50419 2.91171,3.79206 1.63981,2.47088 1.87765,2.64261 2.55043,1.84175 z"
       id="path156"
       inkscape:connector-curvature="0" />
    <g
       aria-label="SALTIEST"
       style="font-style:normal;font-variant:normal;font-weight:normal;font-stretch:normal;font-size:104.22666168px;line-height:1.25;font-family:'Liberation Sans';-inkscape-font-specification:'Liberation Sans, Normal';font-variant-ligatures:normal;font-variant-caps:normal;font-variant-numeric:normal;font-feature-settings:normal;text-align:start;letter-spacing:0px;word-spacing:0px;writing-mode:lr-tb;text-anchor:start;fill:#000000;fill-opacity:1;stroke:none;stroke-width:2.60568285"
       id="text971"
       transform="matrix(0.26458333,0,0,0.26458333,27.207444,150.14045)">
      <path
         d="m 145.79892,80.679705 q 6.49282,7.505169 4.16688,16.717758 -2.28746,9.179297 -12.94865,18.402427 -19.82134,17.14771 -34.89751,6.0993 l 5.88831,-7.58391 q 5.46028,3.82249 11.46083,2.66894 5.96725,-1.19205 12.85661,-7.15212 7.12029,-6.15986 8.87141,-11.914258 1.75632,-5.826184 -2.33916,-10.560214 -2.29746,-2.655675 -4.96082,-3.245172 -2.62488,-0.622794 -5.751,0.197443 -3.12613,0.820236 -6.79932,2.719388 -3.67319,1.899153 -8.10056,4.248882 -7.65948,4.136461 -12.23991,5.609201 -4.541941,1.439443 -7.964686,1.372307 -3.456043,-0.105624 -6.526308,-1.554389 -3.031777,-1.482061 -5.662202,-4.522617 -6.02667,-6.966336 -3.978379,-15.333085 2.086779,-8.400045 12.016695,-16.990547 9.237131,-7.991165 16.58906,-9.371708 7.31862,-1.419031 15.175,3.695231 l -6.13697,7.529851 q -4.92234,-3.278469 -9.93563,-2.306074 -5.046578,0.933907 -10.973737,6.061572 -6.504479,5.627112 -8.06531,10.745833 -1.560831,5.118721 2.135083,9.390894 2.164273,2.501723 4.904617,3.024627 2.745536,0.45112 6.246155,-0.558513 3.467322,-1.04812 12.365752,-5.85266 3.00117,-1.586953 5.99715,-3.102121 3.00117,-1.586954 6.00449,-2.704711 2.97002,-1.156246 5.89851,-1.738215 2.96698,-0.615266 5.82798,-0.264036 2.861,0.35123 5.56715,1.845822 2.74464,1.461295 5.30847,4.424874 z"
         style="font-style:normal;font-variant:normal;font-weight:normal;font-stretch:normal;font-size:104.22666168px;font-family:'Liberation Sans';-inkscape-font-specification:'Liberation Sans, Normal';font-variant-ligatures:normal;font-variant-caps:normal;font-variant-numeric:normal;font-feature-settings:normal;text-align:start;word-spacing:3.15999937px;writing-mode:lr-tb;text-anchor:start;stroke-width:2.60568285"
         id="path1012"
         inkscape:connector-curvature="0" />
      <path
         d="m 215.55089,65.136408 -16.87112,-14.904205 -29.06015,14.933434 2.25051,22.417443 -8.96248,4.605638 -6.74707,-77.153391 9.82251,-5.0475936 58.39448,50.6128186 z m -51.24266,-46.048561 0.24392,1.476768 q 0.79902,4.338518 1.60493,11.362751 L 168.77913,57.07202 192.6338,44.813579 173.62456,27.975543 q -2.87242,-2.471984 -6.16353,-5.75874 z"
         style="font-style:normal;font-variant:normal;font-weight:normal;font-stretch:normal;font-size:104.22666168px;font-family:'Liberation Sans';-inkscape-font-specification:'Liberation Sans, Normal';font-variant-ligatures:normal;font-variant-caps:normal;font-variant-numeric:normal;font-feature-settings:normal;text-align:start;word-spacing:3.15999937px;writing-mode:lr-tb;text-anchor:start;stroke-width:2.60568285"
         id="path1014"
         inkscape:connector-curvature="0" />
      <path
         d="m 234.17349,58.777331 -19.00441,-69.142509 9.37276,-2.576182 16.9003,61.48727 34.93929,-9.603362 2.10411,7.655239 z"
         style="font-style:normal;font-variant:normal;font-weight:normal;font-stretch:normal;font-size:104.22666168px;font-family:'Liberation Sans';-inkscape-font-specification:'Liberation Sans, Normal';font-variant-ligatures:normal;font-variant-caps:normal;font-variant-numeric:normal;font-feature-settings:normal;text-align:start;word-spacing:3.15999937px;writing-mode:lr-tb;text-anchor:start;stroke-width:2.60568285"
         id="path1016"
         inkscape:connector-curvature="0" />
      <path
         d="m 306.24186,-19.286734 4.77367,63.588651 -9.64233,0.723861 -4.77368,-63.58865 -24.56257,1.843942 -0.59433,-7.916863 58.76748,-4.411746 0.59433,7.916863 z"
         style="font-style:normal;font-variant:normal;font-weight:normal;font-stretch:normal;font-size:104.22666168px;font-family:'Liberation Sans';-inkscape-font-specification:'Liberation Sans, Normal';font-variant-ligatures:normal;font-variant-caps:normal;font-variant-numeric:normal;font-feature-settings:normal;text-align:start;word-spacing:3.15999937px;writing-mode:lr-tb;text-anchor:start;stroke-width:2.60568285"
         id="path1018"
         inkscape:connector-curvature="0" />
      <path
         d="m 347.6903,44.436238 5.9304,-71.461069 9.68706,0.803909 -5.9304,71.461068 z"
         style="font-style:normal;font-variant:normal;font-weight:normal;font-stretch:normal;font-size:104.22666168px;font-family:'Liberation Sans';-inkscape-font-specification:'Liberation Sans, Normal';font-variant-ligatures:normal;font-variant-caps:normal;font-variant-numeric:normal;font-feature-settings:normal;text-align:start;word-spacing:3.15999937px;writing-mode:lr-tb;text-anchor:start;stroke-width:2.60568285"
         id="path1020"
         inkscape:connector-curvature="0" />
      <path
         d="m 375.59466,46.482699 17.86039,-69.446816 52.68889,13.5505754 -1.97744,7.6889307 -43.27488,-11.1294721 -5.72953,22.278184 40.3176,10.368916 -1.95209,7.590354 -40.3176,-10.368915 -6.22389,24.200416 45.29569,11.649185 -1.97744,7.688931 z"
         style="font-style:normal;font-variant:normal;font-weight:normal;font-stretch:normal;font-size:104.22666168px;font-family:'Liberation Sans';-inkscape-font-specification:'Liberation Sans, Normal';font-variant-ligatures:normal;font-variant-caps:normal;font-variant-numeric:normal;font-feature-settings:normal;text-align:start;word-spacing:3.15999937px;writing-mode:lr-tb;text-anchor:start;stroke-width:2.60568285"
         id="path1022"
         inkscape:connector-curvature="0" />
      <path
         d="m 501.47369,74.8123 q -4.66691,8.758099 -14.09946,9.902099 -9.38764,1.167933 -21.82863,-5.461465 -23.13037,-12.325416 -18.2453,-30.36688 l 9.19448,2.765783 q -1.60225,6.469844 1.63277,11.65366 3.25895,5.138902 11.29843,9.422881 8.30897,4.427577 14.30807,3.991322 6.06795,-0.457235 9.01169,-5.981575 1.65136,-3.099019 1.24325,-5.796143 -0.3632,-2.673191 -2.25314,-5.294937 -1.88994,-2.621745 -4.98337,-5.365793 -3.09343,-2.744048 -6.87858,-6.029695 -6.61501,-5.658578 -9.63696,-9.402529 -2.97703,-3.720018 -4.14572,-6.93776 -1.14475,-3.262655 -0.89751,-6.648555 0.29216,-3.361967 2.18285,-6.910119 4.33185,-8.129312 12.87531,-9.2280855 8.58837,-1.0748403 20.17601,5.0998345 10.77919,5.743883 14.71216,12.10694 3.95689,6.318145 2.01136,15.488378 l -9.23349,-3.017235 q 1.28816,-5.772211 -1.42265,-10.100035 -2.68689,-4.372737 -9.60354,-8.058395 -7.59035,-4.044651 -12.92788,-3.659528 -5.33752,0.385123 -7.99407,5.370502 -1.55563,2.919366 -1.05769,5.664356 0.56678,2.724009 2.76816,5.627044 2.22532,2.858121 9.90939,9.432367 2.56037,2.229335 5.0519,4.47965 2.56037,2.229335 4.68374,4.629466 2.1473,2.355218 3.74382,4.878279 1.64144,2.546995 2.34297,5.342803 0.70153,2.795807 0.28053,5.858457 -0.37608,3.086582 -2.2189,6.544908 z"
         style="font-style:normal;font-variant:normal;font-weight:normal;font-stretch:normal;font-size:104.22666168px;font-family:'Liberation Sans';-inkscape-font-specification:'Liberation Sans, Normal';font-variant-ligatures:normal;font-variant-caps:normal;font-variant-numeric:normal;font-feature-settings:normal;text-align:start;word-spacing:3.15999937px;writing-mode:lr-tb;text-anchor:start;stroke-width:2.60568285"
         id="path1024"
         inkscape:connector-curvature="0" />
      <path
         d="m 566.00537,70.879859 -41.8092,48.148671 -7.30108,-6.33978 41.8092,-48.148675 -18.59853,-16.149765 5.2053,-5.994567 44.49814,38.639313 -5.2053,5.994567 z"
         style="font-style:normal;font-variant:normal;font-weight:normal;font-stretch:normal;font-size:104.22666168px;font-family:'Liberation Sans';-inkscape-font-specification:'Liberation Sans, Normal';font-variant-ligatures:normal;font-variant-caps:normal;font-variant-numeric:normal;font-feature-settings:normal;text-align:start;word-spacing:3.15999937px;writing-mode:lr-tb;text-anchor:start;stroke-width:2.60568285"
         id="path1026"
         inkscape:connector-curvature="0" />
    </g>
    <g
       aria-label="HACKER"
       style="font-style:normal;font-variant:normal;font-weight:normal;font-stretch:normal;font-size:104.22666168px;line-height:1.25;font-family:'Liberation Sans';-inkscape-font-specification:'Liberation Sans, Normal';font-variant-ligatures:normal;font-variant-caps:normal;font-variant-numeric:normal;font-feature-settings:normal;text-align:start;letter-spacing:0px;word-spacing:0px;writing-mode:lr-tb;text-anchor:start;fill:#000000;fill-opacity:1;stroke:none;stroke-width:2.60568285"
       id="text975"
       transform="matrix(0.26458333,0,0,0.26458333,14.016967,131.97675)">
      <path
         d="m 223.63212,723.34515 15.08318,-29.61236 -34.55531,-17.6009 -15.08318,29.61236 -8.6615,-4.41177 32.54549,-63.89558 8.6615,4.41178 -13.76658,27.02751 34.55531,17.6009 13.76658,-27.02752 8.6615,4.41178 -32.54549,63.89557 z"
         style="font-style:normal;font-variant:normal;font-weight:normal;font-stretch:normal;font-size:104.22666168px;font-family:'Liberation Sans';-inkscape-font-specification:'Liberation Sans, Normal';font-variant-ligatures:normal;font-variant-caps:normal;font-variant-numeric:normal;font-feature-settings:normal;text-align:start;writing-mode:lr-tb;text-anchor:start;stroke-width:2.60568285"
         id="path1032"
         inkscape:connector-curvature="0" />
      <path
         d="m 297.30714,747.84072 -2.09496,-22.41386 -31.4062,-9.00833 -13.70598,17.88163 -9.68603,-2.77827 47.89924,-60.85912 10.61549,3.04488 7.91771,76.86925 z m -5.82904,-68.64621 -0.83316,1.24346 q -2.38762,3.70951 -6.60878,9.38147 l -15.30214,20.12395 25.78048,7.39469 -2.32967,-25.28722 q -0.40156,-3.76832 -0.55054,-8.41719 z"
         style="font-style:normal;font-variant:normal;font-weight:normal;font-stretch:normal;font-size:104.22666168px;font-family:'Liberation Sans';-inkscape-font-specification:'Liberation Sans, Normal';font-variant-ligatures:normal;font-variant-caps:normal;font-variant-numeric:normal;font-feature-settings:normal;text-align:start;writing-mode:lr-tb;text-anchor:start;stroke-width:2.60568285"
         id="path1034"
         inkscape:connector-curvature="0" />
      <path
         d="m 353.12755,689.90335 q -11.86314,-1.04081 -19.12541,6.03623 -7.25782,7.02635 -8.42317,20.30901 -1.15201,13.13057 4.98934,21.7412 6.1965,8.56437 17.90754,9.59184 15.00637,1.31658 23.86349,-12.87496 l 7.56182,4.64826 q -5.22017,8.83992 -13.65288,12.95338 -8.38201,4.11791 -18.92702,3.19274 -10.7985,-0.9474 -18.31585,-6.10263 -7.46219,-5.20147 -10.88991,-13.88054 -3.37256,-8.72532 -2.37178,-20.13218 1.49894,-17.08495 11.57538,-25.95859 10.07644,-8.87364 26.40093,-7.44142 11.40687,1.00078 18.67073,6.13377 7.26385,5.13299 10.09386,14.2194 l -9.44306,2.23676 q -1.93707,-6.4537 -7.17395,-10.23384 -5.18618,-3.77569 -12.74006,-4.43843 z"
         style="font-style:normal;font-variant:normal;font-weight:normal;font-stretch:normal;font-size:104.22666168px;font-family:'Liberation Sans';-inkscape-font-specification:'Liberation Sans, Normal';font-variant-ligatures:normal;font-variant-caps:normal;font-variant-numeric:normal;font-feature-settings:normal;text-align:start;writing-mode:lr-tb;text-anchor:start;stroke-width:2.60568285"
         id="path1036"
         inkscape:connector-curvature="0" />
      <path
         d="m 438.54116,751.42036 -32.09827,-31.43657 -8.57173,8.06076 2.86019,27.3324 -9.66757,1.01166 -7.46297,-71.31731 9.66757,-1.01166 3.73943,35.73458 30.62853,-39.331 11.38849,-1.19174 -27.12778,34.1547 38.63999,36.73887 z"
         style="font-style:normal;font-variant:normal;font-weight:normal;font-stretch:normal;font-size:104.22666168px;font-family:'Liberation Sans';-inkscape-font-specification:'Liberation Sans, Normal';font-variant-ligatures:normal;font-variant-caps:normal;font-variant-numeric:normal;font-feature-settings:normal;text-align:start;writing-mode:lr-tb;text-anchor:start;stroke-width:2.60568285"
         id="path1038"
         inkscape:connector-curvature="0" />
      <path
         d="m 466.95806,745.98782 -21.66119,-68.35676 51.86187,-16.43422 2.39826,7.56824 -42.59563,13.49789 6.9488,21.9285 39.68477,-12.57548 2.36751,7.47121 -39.68476,12.57548 7.54836,23.82056 44.58472,-14.1282 2.39825,7.56824 z"
         style="font-style:normal;font-variant:normal;font-weight:normal;font-stretch:normal;font-size:104.22666168px;font-family:'Liberation Sans';-inkscape-font-specification:'Liberation Sans, Normal';font-variant-ligatures:normal;font-variant-caps:normal;font-variant-numeric:normal;font-feature-settings:normal;text-align:start;writing-mode:lr-tb;text-anchor:start;stroke-width:2.60568285"
         id="path1040"
         inkscape:connector-curvature="0" />
      <path
         d="m 577.51177,699.37484 -30.59619,-17.2388 -19.6211,10.68446 14.23783,26.14656 -8.53674,4.64859 -34.29248,-62.97522 29.63277,-16.13621 q 10.63741,-5.79249 19.00724,-4.14975 8.3902,1.57371 13.01445,10.06575 3.82109,7.01712 2.31334,14.03859 -1.46306,6.99714 -7.97748,12.16704 l 32.65126,17.39459 z m -25.68698,-44.1923 q -2.99359,-5.49748 -8.30562,-6.31355 -5.29166,-0.88511 -12.30877,2.93599 l -20.24683,11.02519 12.65585,23.24139 20.60439,-11.2199 q 6.74894,-3.67506 8.71025,-8.79944 1.98168,-5.19341 -1.10927,-10.86968 z"
         style="font-style:normal;font-variant:normal;font-weight:normal;font-stretch:normal;font-size:104.22666168px;font-family:'Liberation Sans';-inkscape-font-specification:'Liberation Sans, Normal';font-variant-ligatures:normal;font-variant-caps:normal;font-variant-numeric:normal;font-feature-settings:normal;text-align:start;writing-mode:lr-tb;text-anchor:start;stroke-width:2.60568285"
         id="path1042"
         inkscape:connector-curvature="0" />
    </g>
  </g>
</svg>
